<svg viewBox="0 0 97 19" xmlns="http://www.w3.org/2000/svg"><path d="M0 9.54C0 4.27 3.8 0 8.54 0c4.52 0 8.1 3.88 8.46 8.84V9c0 .5-.4.85-.86.85H1.72c.18 4.15 3.2 7.29 6.82 7.29a6.52 6.52 0 0 0 5.66-3.45.8.8 0 0 1 1.15-.31c.4.3.54.85.29 1.32a8.27 8.27 0 0 1-7.1 4.3C3.8 19 0 14.73 0 9.54m1.83-1.51h13.3c-.57-3.57-3.37-6.17-6.6-6.17-3.3 0-6.05 2.56-6.7 6.17M65.5 0C61.35 0 58 3.5 58 7.73v10.34a.9.9 0 1 0 1.8 0V7.73a5.78 5.78 0 0 1 5.7-5.87 5.78 5.78 0 0 1 5.69 5.87v10.34c0 .54.41.93.9.93a.9.9 0 0 0 .9-.93V7.73A7.64 7.64 0 0 0 65.5 0M27.53 0c-4.14 0-7.5 3.5-7.5 7.73v10.34a.9.9 0 1 0 1.81 0V7.73a5.78 5.78 0 0 1 5.7-5.87 5.78 5.78 0 0 1 5.68 5.87v10.34c0 .54.42.93.9.93a.9.9 0 0 0 .91-.93V7.73A7.64 7.64 0 0 0 27.53 0M76 .93c0-.54.42-.93.92-.93.53 0 .95.39.95.93v17.14c0 .5-.42.93-.95.93a.94.94 0 0 1-.92-.93V.93M81 9.46C81 4.2 85.3 0 90.68 0c2.22 0 4.33.78 5.98 2.1.39.27.46.85.12 1.27a.94.94 0 0 1-1.27.16 7.67 7.67 0 0 0-4.83-1.7 7.73 7.73 0 0 0-7.84 7.63 7.7 7.7 0 0 0 7.84 7.68c1.8 0 3.49-.62 4.83-1.67a.94.94 0 0 1 1.27.16c.35.42.27 1-.2 1.35a9.65 9.65 0 0 1-5.9 2.02A9.54 9.54 0 0 1 81 9.47M39.8 8c.62-3.51 3.43-6.19 6.7-6.19S52.58 4.5 53.2 8H55c-.64-4.47-4.17-8-8.5-8-4.3 0-7.85 3.53-8.5 8h1.8M53.2 11c-.6 3.5-3.41 6.16-6.7 6.16-3.3 0-6.12-2.65-6.71-6.16h-1.8c.62 4.46 4.2 8 8.5 8 4.35 0 7.9-3.54 8.5-8H53.2" fill-rule="evenodd"/></svg>
